<svg xmlns="http://www.w3.org/2000/svg" width="105.18" height="94" viewBox="0 0 105.18 94"><defs><style>.a{fill:#75a9e1;}</style></defs><g transform="translate(0 -27.19)"><path class="a" d="M103.255,189.11h-2.286V151.357a1.542,1.542,0,0,0-3.084,0V189.11H20.892a1.542,1.542,0,0,0,0,3.084h81.2v1.429a4.353,4.353,0,0,1-4.348,4.349H7.432a4.353,4.353,0,0,1-4.348-4.349v-1.429H14.322a1.542,1.542,0,0,0,0-3.084H7.294V135.435a4.636,4.636,0,0,1,4.631-4.631H29.461a1.542,1.542,0,1,0,0-3.084H11.925a7.723,7.723,0,0,0-7.714,7.714V189.11H1.925A1.927,1.927,0,0,0,0,191.035v2.588a7.441,7.441,0,0,0,7.432,7.432H97.748a7.441,7.441,0,0,0,7.432-7.432v-2.588a1.927,1.927,0,0,0-1.924-1.925Z" transform="translate(0 -79.864)"/><path class="a" d="M363.363,130.8h17.331a4.636,4.636,0,0,1,4.631,4.631v9.351a1.542,1.542,0,1,0,3.084,0v-9.351a7.723,7.723,0,0,0-7.714-7.714H363.363a1.542,1.542,0,0,0,0,3.084Z" transform="translate(-287.439 -79.864)"/><path class="a" d="M50.482,159.268v49.049a1.542,1.542,0,0,0,1.542,1.542h81.34a1.542,1.542,0,0,0,1.542-1.542l0-49.054a1.542,1.542,0,0,0-1.542-1.542H114.246a1.542,1.542,0,1,0,0,3.084h17.571l0,45.97H53.566V160.81H71.349a1.542,1.542,0,1,0,0-3.084H52.024a1.542,1.542,0,0,0-1.542,1.542Z" transform="translate(-40.104 -103.697)"/><path class="a" d="M183.483,64.885A18.868,18.868,0,0,0,202.33,46.037a18.64,18.64,0,0,0-2.055-8.554,1.542,1.542,0,0,0-2.747,1.4,15.585,15.585,0,0,1,1.717,7.152,15.775,15.775,0,1,1-5.435-11.9,1.542,1.542,0,1,0,2.022-2.328,18.845,18.845,0,1,0-12.35,33.078Z" transform="translate(-130.79)"/><path class="a" d="M214.94,71.053a2.035,2.035,0,0,0-2.872,0l-8.384,8.384-2.906-2.906a2.034,2.034,0,0,0-2.872,0L194.237,80.2a2.03,2.03,0,0,0,0,2.872l6.177,6.176a4.625,4.625,0,0,0,6.541,0l11.654-11.654a2.03,2.03,0,0,0,0-2.872ZM204.775,87.069a1.542,1.542,0,0,1-2.181,0l-5.432-5.432,2.18-2.18,2.906,2.906a2.034,2.034,0,0,0,2.872,0l8.384-8.384,2.18,2.18Z" transform="translate(-153.834 -34.374)"/><path class="a" d="M168.3,325.876h30.37a3.667,3.667,0,0,0,3.662-3.663v-4.661a3.667,3.667,0,0,0-3.662-3.663H178.015a1.542,1.542,0,1,0,0,3.084h20.654a.579.579,0,0,1,.579.579v4.661a.579.579,0,0,1-.579.579H168.3a.579.579,0,0,1-.579-.579v-4.661a.579.579,0,0,1,.579-.579h3.145a1.542,1.542,0,1,0,0-3.084H168.3a3.667,3.667,0,0,0-3.662,3.663v4.661A3.667,3.667,0,0,0,168.3,325.876Z" transform="translate(-130.791 -227.76)"/><path class="a" d="M107.512,217a9.794,9.794,0,1,0-9.794,9.793A9.8,9.8,0,0,0,107.512,217Zm-9.794,6.71a6.71,6.71,0,1,1,6.71-6.71A6.717,6.717,0,0,1,97.718,223.707Z" transform="translate(-69.85 -143.007)"/><path class="a" d="M207.772,238.279h2.389a1.542,1.542,0,0,0,0-3.084h-2.389a1.542,1.542,0,0,0,0,3.084Z" transform="translate(-163.834 -165.244)"/><path class="a" d="M281.377,235.2H249.856a1.542,1.542,0,1,0,0,3.084h31.521a1.542,1.542,0,0,0,0-3.084Z" transform="translate(-197.266 -165.244)"/><path class="a" d="M249.486,267.9a1.542,1.542,0,0,0-1.542-1.542H207.772a1.542,1.542,0,1,0,0,3.084h40.172A1.542,1.542,0,0,0,249.486,267.9Z" transform="translate(-163.834 -189.998)"/></g></svg>