<svg xmlns="http://www.w3.org/2000/svg" width="94" height="94" viewBox="0 0 94 94"><defs><style>.a{fill:#75a9e1;}</style></defs><g transform="translate(-16 -16)"><path class="a" d="M395.331,202.286H392v3.133h4.653a1.567,1.567,0,0,0,1.544-1.3l11.744-68.933-3.089-.526Z" transform="translate(-302.367 -95.419)"/><path class="a" d="M409.955,42.509l-18.8-3.315-.544,3.086,17.266,3.045-1.607,9.431,3.089.526,1.868-10.967A1.567,1.567,0,0,0,409.955,42.509Z" transform="translate(-301.25 -18.652)"/><path class="a" d="M84.933,16H17.567A1.567,1.567,0,0,0,16,17.567V81.8h3.133V19.133H83.366v87.733H19.133V84.933H16v23.5A1.567,1.567,0,0,0,17.567,110H84.933a1.567,1.567,0,0,0,1.567-1.567V17.567A1.567,1.567,0,0,0,84.933,16Z"/><path class="a" d="M84.559,256.971l-2.216,2.216,4.7,4.7a1.567,1.567,0,0,0,1.108.459h.06a1.567,1.567,0,0,0,1.129-.546l9.4-10.967-2.379-2.039-8.3,9.682Z" transform="translate(-53.351 -188.813)"/><path class="a" d="M56,261.317a5.49,5.49,0,0,0,5.483,5.483h7.833a5.49,5.49,0,0,0,5.483-5.483v-.783H71.667v.783a2.353,2.353,0,0,1-2.35,2.35H61.483a2.353,2.353,0,0,1-2.35-2.35v-7.833a2.353,2.353,0,0,1,2.35-2.35h7.05V248h-7.05A5.49,5.49,0,0,0,56,253.483Z" transform="translate(-32.167 -186.567)"/><path class="a" d="M84.559,376.971l-2.216,2.216,4.7,4.7a1.566,1.566,0,0,0,1.108.459h.06a1.566,1.566,0,0,0,1.129-.546l9.4-10.967-2.379-2.039-8.3,9.682Z" transform="translate(-53.351 -285.313)"/><path class="a" d="M56,381.317a5.49,5.49,0,0,0,5.483,5.483h7.833a5.49,5.49,0,0,0,5.483-5.483v-.783H71.667v.783a2.353,2.353,0,0,1-2.35,2.35H61.483a2.353,2.353,0,0,1-2.35-2.35v-7.833a2.353,2.353,0,0,1,2.35-2.35h7.05V368h-7.05A5.49,5.49,0,0,0,56,373.483Z" transform="translate(-32.167 -283.067)"/><path class="a" d="M184,368h23.5v3.133H184Z" transform="translate(-135.1 -283.067)"/><path class="a" d="M184,408h7.833v3.133H184Z" transform="translate(-135.1 -315.234)"/><path class="a" d="M240,408h12.533v3.133H240Z" transform="translate(-180.133 -315.234)"/><path class="a" d="M184,248h23.5v3.133H184Z" transform="translate(-135.1 -186.567)"/><path class="a" d="M184,288h7.833v3.133H184Z" transform="translate(-135.1 -218.733)"/><path class="a" d="M240,288h12.533v3.133H240Z" transform="translate(-180.133 -218.733)"/><path class="a" d="M150.366,54.414l-14.08-6.279a1.567,1.567,0,0,0-1.276,0l-14.08,6.279a1.567,1.567,0,0,0-.909,1.675l1.174,7.452c0,.012,0,.024.006.037a25.643,25.643,0,0,0,10.116,16.081l3.416,2.515a1.567,1.567,0,0,0,1.85.006l3.254-2.365a25.636,25.636,0,0,0,10.248-16.176c0-.012,0-.024.006-.036l1.185-7.512a1.567,1.567,0,0,0-.909-1.675ZM147,63.1a22.516,22.516,0,0,1-9,14.184l-2.326,1.691-2.492-1.836a22.523,22.523,0,0,1-8.888-14.1l-.984-6.247,12.345-5.506,12.346,5.505Z" transform="translate(-83.633 -25.733)"/><path class="a" d="M164.368,103.1l-2.215,2.215,4.7,4.7a1.567,1.567,0,0,0,2.215,0l9.4-9.4L176.253,98.4l-8.292,8.293Z" transform="translate(-117.531 -66.263)"/><path class="a" d="M56,48h9.4v3.133H56Z" transform="translate(-32.167 -25.733)"/><path class="a" d="M56,80h6.267v3.133H56Z" transform="translate(-32.167 -51.467)"/><path class="a" d="M296,48h3.133v3.133H296Z" transform="translate(-225.167 -25.733)"/><path class="a" d="M328,48h3.133v3.133H328Z" transform="translate(-250.9 -25.733)"/></g></svg>