<svg xmlns="http://www.w3.org/2000/svg" width="89.287" height="94" viewBox="0 0 89.287 94"><defs><style>.a{fill:#75a9e1;}</style></defs><g transform="translate(-5.003 -1.994)"><path class="a" d="M61.393,43.6A14.114,14.114,0,0,0,50.427,29.844V23.232a17.232,17.232,0,1,0-34.463,0v6.612a14.1,14.1,0,0,0-5.3,25.042,20.241,20.241,0,0,0-4.1,12.208V92.158a1.567,1.567,0,0,0,1.567,1.567H58.26a1.567,1.567,0,0,0,1.567-1.567V67.094a20.241,20.241,0,0,0-4.1-12.208A14.1,14.1,0,0,0,61.393,43.6Zm-53.261,0a10.966,10.966,0,0,1,9.592-10.884A1.567,1.567,0,0,0,19.1,31.158V23.232a14.1,14.1,0,1,1,28.2,0v7.927a1.567,1.567,0,0,0,1.374,1.554,10.951,10.951,0,0,1,4.978,19.8,20.293,20.293,0,0,0-12.618-5.7V42.324a9.4,9.4,0,0,0,4.7-8.127V21.665A1.567,1.567,0,0,0,44.161,20.1H22.23a1.567,1.567,0,0,0-1.567,1.567V34.2a9.4,9.4,0,0,0,4.7,8.127v4.485a20.293,20.293,0,0,0-12.618,5.7A10.966,10.966,0,0,1,8.131,43.6Zm28.2-3.133H30.063A6.266,6.266,0,0,1,23.8,34.2V23.232h18.8V34.2A6.266,6.266,0,0,1,36.329,40.463ZM30.063,43.6h6.266a9.4,9.4,0,0,0,1.567-.141v4.291l-4.7,5.876-4.7-5.874V43.455a9.4,9.4,0,0,0,1.567.141Zm-3.019,7.352,3.916,4.9-3.337,2.506-2.068-5.169ZM33.2,58.087l4.328,3.244L33.2,71.07l-4.328-9.739Zm5.571.262-3.337-2.506,3.916-4.9,1.487,2.231ZM56.693,90.592H50.427v-8.7a13.185,13.185,0,0,0,0-17.066V62.394H47.294v3.133a1.567,1.567,0,0,0,.627,1.253c1.41,1.064,2.506,4.41,2.506,6.579s-1.1,5.517-2.506,6.579a1.566,1.566,0,0,0-.627,1.253v9.4H19.1v-9.4a1.566,1.566,0,0,0-.627-1.253c-1.41-1.064-2.506-4.41-2.506-6.579s1.1-5.517,2.506-6.579a1.567,1.567,0,0,0,.627-1.253V62.394H15.964v2.433a13.185,13.185,0,0,0,0,17.066v8.7H9.7v-23.5A17.252,17.252,0,0,1,23.8,50.16l-1.311,1.966a1.567,1.567,0,0,0-.157,1.452l9.423,21.984a1.567,1.567,0,0,0,2.864,0l9.423-21.984a1.567,1.567,0,0,0-.157-1.452L42.595,50.16a17.252,17.252,0,0,1,14.1,16.934Z" transform="translate(0 2.269)"/><path class="a" d="M25.266,25.133A3.133,3.133,0,0,1,22.133,22H19a6.266,6.266,0,0,0,12.532,0H28.4A3.133,3.133,0,0,1,25.266,25.133Z" transform="translate(7.93 11.334)"/><path class="a" d="M76.73,22.368A20.365,20.365,0,1,0,50.1,41.736V74.063a6.266,6.266,0,0,0,12.532,0V41.736a20.394,20.394,0,0,0,14.1-19.368ZM59.5,74.063a3.133,3.133,0,0,1-6.266,0v-31.6a18.563,18.563,0,0,0,6.266,0ZM56.366,39.6A17.232,17.232,0,1,1,73.6,22.368,17.232,17.232,0,0,1,56.366,39.6Z" transform="translate(17.559 0)"/><path class="a" d="M54.1,6A14.1,14.1,0,1,0,68.2,20.1,14.1,14.1,0,0,0,54.1,6ZM49.4,20.1a4.7,4.7,0,1,1,4.7,4.7A4.7,4.7,0,0,1,49.4,20.1Zm-2.793,2.157A23.184,23.184,0,0,1,43.8,20.1a22.8,22.8,0,0,1,2.806-2.168,7.023,7.023,0,0,0,0,4.327Zm14.985-4.314a23.184,23.184,0,0,1,2.8,2.157,22.8,22.8,0,0,1-2.806,2.168,7.023,7.023,0,0,0,0-4.327ZM54.1,9.133a10.98,10.98,0,0,1,10.148,6.824A17.832,17.832,0,0,0,54.1,12.266a17.832,17.832,0,0,0-10.148,3.691A10.98,10.98,0,0,1,54.1,9.133Zm0,21.931A10.98,10.98,0,0,1,43.951,24.24,17.832,17.832,0,0,0,54.1,27.931,17.832,17.832,0,0,0,64.246,24.24,10.98,10.98,0,0,1,54.1,31.064Z" transform="translate(19.826 2.269)"/></g></svg>