<svg xmlns="http://www.w3.org/2000/svg" width="31.867" height="31.867" viewBox="0 0 31.867 31.867"><defs><style>.a{fill:#8e899f;}</style></defs><path class="a" d="M213.1,210.05a3.05,3.05,0,1,1-3.05-3.05A3.05,3.05,0,0,1,213.1,210.05Zm0,0" transform="translate(-194.116 -194.116)"/><path class="a" d="M150.118,137.593a3.03,3.03,0,0,0-1.736-1.736,5.062,5.062,0,0,0-1.7-.315c-.965-.044-1.254-.053-3.7-.053s-2.732.009-3.7.053a5.065,5.065,0,0,0-1.7.315,3.031,3.031,0,0,0-1.737,1.736,5.064,5.064,0,0,0-.315,1.7c-.044.965-.053,1.254-.053,3.7s.009,2.732.053,3.7a5.062,5.062,0,0,0,.315,1.7,3.03,3.03,0,0,0,1.736,1.736,5.056,5.056,0,0,0,1.7.315c.965.044,1.254.053,3.7.053s2.733-.009,3.7-.053a5.056,5.056,0,0,0,1.7-.315,3.03,3.03,0,0,0,1.736-1.736,5.067,5.067,0,0,0,.315-1.7c.044-.965.053-1.254.053-3.7s-.009-2.732-.053-3.7A5.056,5.056,0,0,0,150.118,137.593Zm-7.132,10.094a4.7,4.7,0,1,1,4.7-4.7A4.7,4.7,0,0,1,142.986,147.687Zm4.884-8.484a1.1,1.1,0,1,1,1.1-1.1A1.1,1.1,0,0,1,147.869,139.2Zm0,0" transform="translate(-127.052 -127.056)"/><path class="a" d="M15.933,0A15.933,15.933,0,1,0,31.867,15.933,15.935,15.935,0,0,0,15.933,0Zm9.094,19.705a6.713,6.713,0,0,1-.425,2.221A4.678,4.678,0,0,1,21.926,24.6a6.717,6.717,0,0,1-2.221.425c-.976.044-1.287.055-3.772.055s-2.8-.011-3.772-.055A6.717,6.717,0,0,1,9.941,24.6a4.678,4.678,0,0,1-2.676-2.676,6.711,6.711,0,0,1-.425-2.221c-.045-.976-.055-1.288-.055-3.772s.01-2.8.055-3.772A6.713,6.713,0,0,1,7.264,9.94,4.681,4.681,0,0,1,9.94,7.265a6.719,6.719,0,0,1,2.221-.425c.976-.044,1.287-.055,3.772-.055s2.8.011,3.772.055a6.72,6.72,0,0,1,2.221.425A4.679,4.679,0,0,1,24.6,9.94a6.712,6.712,0,0,1,.425,2.221c.044.976.055,1.287.055,3.772S25.072,18.73,25.027,19.705Zm0,0"/></svg>