<svg xmlns="http://www.w3.org/2000/svg" width="31.867" height="31.867" viewBox="0 0 31.867 31.867"><defs><style>.a{fill:#8e899f;}</style></defs><path class="a" d="M15.933,0A15.933,15.933,0,1,0,31.867,15.933,15.935,15.935,0,0,0,15.933,0ZM11.3,24.087H7.423V12.412H11.3ZM9.363,10.818H9.338a2.022,2.022,0,1,1,.051-4.034,2.023,2.023,0,1,1-.026,4.034ZM25.3,24.087h-3.88V17.841c0-1.57-.562-2.64-1.966-2.64a2.124,2.124,0,0,0-1.991,1.419,2.657,2.657,0,0,0-.128.947v6.52h-3.88s.051-10.579,0-11.675h3.88v1.653a3.852,3.852,0,0,1,3.5-1.927c2.553,0,4.467,1.669,4.467,5.254Zm0,0"/></svg>