<svg xmlns="http://www.w3.org/2000/svg" width="27.688" height="27.688" viewBox="0 0 27.688 27.688"><defs><style>.a{fill:#bfbfbf;}</style></defs><path class="a" d="M25.326,357.215a.811.811,0,0,0-.781,1.422c.966.531,1.52,1.119,1.52,1.615,0,.606-.858,1.545-3.267,2.363a28.964,28.964,0,0,1-8.954,1.254,28.964,28.964,0,0,1-8.954-1.254c-2.409-.818-3.267-1.757-3.267-2.363,0-.5.554-1.084,1.52-1.615a.811.811,0,1,0-.781-1.422c-1.077.592-2.362,1.6-2.362,3.036,0,1.1.758,2.673,4.367,3.9a30.6,30.6,0,0,0,9.476,1.34,30.6,30.6,0,0,0,9.476-1.34c3.61-1.226,4.367-2.8,4.367-3.9C27.688,358.814,26.4,357.807,25.326,357.215Z" transform="translate(0 -337.803)"/><path class="a" d="M89.646,345.676a26.355,26.355,0,0,0,12.248,0c2.015-.569,3.036-1.393,3.036-2.448s-1.021-1.879-3.036-2.448c-.447-.126-.934-.237-1.451-.332q-.421.728-.883,1.5c.572.086,1.11.191,1.6.315a4.142,4.142,0,0,1,2.136.966,4.141,4.141,0,0,1-2.136.966,22.4,22.4,0,0,1-5.11.579c-.092.007-.185.011-.278.011s-.186,0-.278-.011a22.4,22.4,0,0,1-5.11-.579,4.141,4.141,0,0,1-2.136-.966,4.142,4.142,0,0,1,2.136-.966c.488-.124,1.025-.23,1.6-.315q-.461-.771-.883-1.5c-.517.095-1,.205-1.451.332-2.015.569-3.036,1.393-3.036,2.448S87.631,345.107,89.646,345.676Z" transform="translate(-81.926 -322.038)"/><path class="a" d="M124.1,21.124a2.042,2.042,0,0,0,1.755-.984c2.64-4.318,5.786-10.01,5.786-12.6a7.541,7.541,0,0,0-15.081,0c0,2.59,3.146,8.281,5.786,12.6A2.042,2.042,0,0,0,124.1,21.124Zm-3.031-14.1a3.031,3.031,0,1,1,3.031,3.031A3.034,3.034,0,0,1,121.07,7.023Z" transform="translate(-110.257)"/></svg>