<svg xmlns="http://www.w3.org/2000/svg" width="31.867" height="31.867" viewBox="0 0 31.867 31.867"><defs><style>.a{fill:#8e899f;}</style></defs><path class="a" d="M15.933,0A15.933,15.933,0,1,0,31.867,15.933,15.935,15.935,0,0,0,15.933,0Zm7.275,12.423q.011.235.01.473A10.335,10.335,0,0,1,12.813,23.3h0a10.352,10.352,0,0,1-5.606-1.643,7.438,7.438,0,0,0,.872.051,7.338,7.338,0,0,0,4.542-1.565A3.661,3.661,0,0,1,9.206,17.6a3.645,3.645,0,0,0,1.652-.063,3.658,3.658,0,0,1-2.934-3.585c0-.017,0-.031,0-.047a3.632,3.632,0,0,0,1.656.457A3.66,3.66,0,0,1,8.448,9.484a10.383,10.383,0,0,0,7.538,3.821A3.659,3.659,0,0,1,22.218,9.97a7.335,7.335,0,0,0,2.322-.888,3.671,3.671,0,0,1-1.608,2.023,7.294,7.294,0,0,0,2.1-.576,7.432,7.432,0,0,1-1.824,1.894Zm0,0"/></svg>